%TF.GenerationSoftware,KiCad,Pcbnew,10.0.3*%
%TF.CreationDate,2026-06-21T01:39:48+05:30*%
%TF.ProjectId,Tamagotchi,54616d61-676f-4746-9368-692e6b696361,rev?*%
%TF.SameCoordinates,Original*%
%TF.FileFunction,Soldermask,Top*%
%TF.FilePolarity,Negative*%
%FSLAX46Y46*%
G04 Gerber Fmt 4.6, Leading zero omitted, Abs format (unit mm)*
G04 Created by KiCad (PCBNEW 10.0.3) date 2026-06-21 01:39:48*
%MOMM*%
%LPD*%
G01*
G04 APERTURE LIST*
G04 Aperture macros list*
%AMRoundRect*
0 Rectangle with rounded corners*
0 $1 Rounding radius*
0 $2 $3 $4 $5 $6 $7 $8 $9 X,Y pos of 4 corners*
0 Add a 4 corners polygon primitive as box body*
4,1,4,$2,$3,$4,$5,$6,$7,$8,$9,$2,$3,0*
0 Add four circle primitives for the rounded corners*
1,1,$1+$1,$2,$3*
1,1,$1+$1,$4,$5*
1,1,$1+$1,$6,$7*
1,1,$1+$1,$8,$9*
0 Add four rect primitives between the rounded corners*
20,1,$1+$1,$2,$3,$4,$5,0*
20,1,$1+$1,$4,$5,$6,$7,0*
20,1,$1+$1,$6,$7,$8,$9,0*
20,1,$1+$1,$8,$9,$2,$3,0*%
G04 Aperture macros list end*
%ADD10RoundRect,0.102000X-0.975000X-0.975000X0.975000X-0.975000X0.975000X0.975000X-0.975000X0.975000X0*%
%ADD11C,2.154000*%
%ADD12O,1.600000X2.000000*%
%ADD13RoundRect,0.102000X0.825000X-0.825000X0.825000X0.825000X-0.825000X0.825000X-0.825000X-0.825000X0*%
%ADD14C,1.854000*%
%ADD15R,2.000000X2.000000*%
%ADD16C,2.000000*%
%ADD17RoundRect,0.500000X0.500000X-1.000000X0.500000X1.000000X-0.500000X1.000000X-0.500000X-1.000000X0*%
%ADD18RoundRect,0.250000X1.500000X-1.500000X1.500000X1.500000X-1.500000X1.500000X-1.500000X-1.500000X0*%
%ADD19RoundRect,0.250000X0.400000X-0.900000X0.400000X0.900000X-0.400000X0.900000X-0.400000X-0.900000X0*%
%ADD20C,1.300000*%
G04 APERTURE END LIST*
D10*
%TO.C,SW2*%
X147750000Y-143500000D03*
D11*
X147750000Y-148500000D03*
X160250000Y-143500000D03*
X160250000Y-148500000D03*
%TD*%
D10*
%TO.C,SW3*%
X162750000Y-143500000D03*
D11*
X162750000Y-148500000D03*
X175250000Y-143500000D03*
X175250000Y-148500000D03*
%TD*%
D12*
%TO.C,U2*%
X148580000Y-91550000D03*
X151120000Y-91550000D03*
X153660000Y-91550000D03*
X156200000Y-91550000D03*
%TD*%
D13*
%TO.C,BT1*%
X134500000Y-114580000D03*
D14*
X134500000Y-109500000D03*
%TD*%
D15*
%TO.C,BZ1*%
X168000000Y-136800000D03*
D16*
X168000000Y-129200000D03*
%TD*%
D17*
%TO.C,U1*%
X134780000Y-136900000D03*
X137320000Y-136900000D03*
X139860000Y-136900000D03*
X142400000Y-136900000D03*
X144940000Y-136900000D03*
X147480000Y-136900000D03*
X150020000Y-136900000D03*
X150020000Y-119900000D03*
X147480000Y-119900000D03*
X144940000Y-119900000D03*
X142400000Y-119900000D03*
X139860000Y-119900000D03*
X137320000Y-119900000D03*
X134780000Y-119900000D03*
D18*
X143000000Y-126300000D03*
D19*
X142000000Y-132900000D03*
X140100000Y-132900000D03*
D20*
X133780000Y-129670000D03*
X136360000Y-129670000D03*
X138900000Y-129670000D03*
X138900000Y-127130000D03*
X136360000Y-127130000D03*
X133780000Y-127130000D03*
%TD*%
D10*
%TO.C,SW1*%
X132500000Y-143500000D03*
D11*
X132500000Y-148500000D03*
X145000000Y-143500000D03*
X145000000Y-148500000D03*
%TD*%
M02*
