%TF.GenerationSoftware,KiCad,Pcbnew,10.0.3*%
%TF.CreationDate,2026-06-21T01:39:47+05:30*%
%TF.ProjectId,Tamagotchi,54616d61-676f-4746-9368-692e6b696361,rev?*%
%TF.SameCoordinates,Original*%
%TF.FileFunction,Copper,L1,Top*%
%TF.FilePolarity,Positive*%
%FSLAX46Y46*%
G04 Gerber Fmt 4.6, Leading zero omitted, Abs format (unit mm)*
G04 Created by KiCad (PCBNEW 10.0.3) date 2026-06-21 01:39:47*
%MOMM*%
%LPD*%
G01*
G04 APERTURE LIST*
G04 Aperture macros list*
%AMRoundRect*
0 Rectangle with rounded corners*
0 $1 Rounding radius*
0 $2 $3 $4 $5 $6 $7 $8 $9 X,Y pos of 4 corners*
0 Add a 4 corners polygon primitive as box body*
4,1,4,$2,$3,$4,$5,$6,$7,$8,$9,$2,$3,0*
0 Add four circle primitives for the rounded corners*
1,1,$1+$1,$2,$3*
1,1,$1+$1,$4,$5*
1,1,$1+$1,$6,$7*
1,1,$1+$1,$8,$9*
0 Add four rect primitives between the rounded corners*
20,1,$1+$1,$2,$3,$4,$5,0*
20,1,$1+$1,$4,$5,$6,$7,0*
20,1,$1+$1,$6,$7,$8,$9,0*
20,1,$1+$1,$8,$9,$2,$3,0*%
G04 Aperture macros list end*
%TA.AperFunction,ComponentPad*%
%ADD10R,1.950000X1.950000*%
%TD*%
%TA.AperFunction,ComponentPad*%
%ADD11C,1.950000*%
%TD*%
%TA.AperFunction,ComponentPad*%
%ADD12O,1.600000X2.000000*%
%TD*%
%TA.AperFunction,ComponentPad*%
%ADD13R,1.650000X1.650000*%
%TD*%
%TA.AperFunction,ComponentPad*%
%ADD14C,1.650000*%
%TD*%
%TA.AperFunction,ComponentPad*%
%ADD15R,2.000000X2.000000*%
%TD*%
%TA.AperFunction,ComponentPad*%
%ADD16C,2.000000*%
%TD*%
%TA.AperFunction,SMDPad,CuDef*%
%ADD17RoundRect,0.500000X0.500000X-1.000000X0.500000X1.000000X-0.500000X1.000000X-0.500000X-1.000000X0*%
%TD*%
%TA.AperFunction,HeatsinkPad*%
%ADD18RoundRect,0.250000X1.500000X-1.500000X1.500000X1.500000X-1.500000X1.500000X-1.500000X-1.500000X0*%
%TD*%
%TA.AperFunction,SMDPad,CuDef*%
%ADD19RoundRect,0.250000X0.400000X-0.900000X0.400000X0.900000X-0.400000X0.900000X-0.400000X-0.900000X0*%
%TD*%
%TA.AperFunction,SMDPad,CuDef*%
%ADD20C,1.300000*%
%TD*%
%TA.AperFunction,Conductor*%
%ADD21C,0.200000*%
%TD*%
G04 APERTURE END LIST*
D10*
%TO.P,SW2,1,1_1*%
%TO.N,GND*%
X147750000Y-143500000D03*
D11*
%TO.P,SW2,2,2_2*%
%TO.N,Net-(U1-GPIO3_A1_D1)*%
X147750000Y-148500000D03*
%TO.P,SW2,3*%
%TO.N,N/C*%
X160250000Y-143500000D03*
%TO.P,SW2,4*%
X160250000Y-148500000D03*
%TD*%
D10*
%TO.P,SW3,1,1_1*%
%TO.N,GND*%
X162750000Y-143500000D03*
D11*
%TO.P,SW3,2,2_2*%
%TO.N,Net-(U1-GPIO4_A2_D2)*%
X162750000Y-148500000D03*
%TO.P,SW3,3*%
%TO.N,N/C*%
X175250000Y-143500000D03*
%TO.P,SW3,4*%
X175250000Y-148500000D03*
%TD*%
D12*
%TO.P,U2,1,GND_1*%
%TO.N,GND*%
X148580000Y-91550000D03*
%TO.P,U2,2,VCC_IN_2*%
%TO.N,+3V3*%
X151120000Y-91550000D03*
%TO.P,U2,3,SCL_3*%
%TO.N,Net-(U1-GPIO7_D5_SCL)*%
X153660000Y-91550000D03*
%TO.P,U2,4,SDA_4*%
%TO.N,Net-(U1-GPIO21_D6_TX)*%
X156200000Y-91550000D03*
%TD*%
D13*
%TO.P,BT1,1,+_1*%
%TO.N,Net-(BT1-+)*%
X134500000Y-114580000D03*
D14*
%TO.P,BT1,2,-_2*%
%TO.N,Net-(BT1--)*%
X134500000Y-109500000D03*
%TD*%
D15*
%TO.P,BZ1,1,+_1*%
%TO.N,Net-(BZ1-+)*%
X168000000Y-136800000D03*
D16*
%TO.P,BZ1,2,-_2*%
%TO.N,Net-(BT1--)*%
X168000000Y-129200000D03*
%TD*%
D17*
%TO.P,U1,1,GPIO2_A0_D0_1*%
%TO.N,Net-(U1-GPIO2_A0_D0)*%
X134780000Y-136900000D03*
%TO.P,U1,2,GPIO3_A1_D1_2*%
%TO.N,Net-(U1-GPIO3_A1_D1)*%
X137320000Y-136900000D03*
%TO.P,U1,3,GPIO4_A2_D2_3*%
%TO.N,Net-(U1-GPIO4_A2_D2)*%
X139860000Y-136900000D03*
%TO.P,U1,4,GPIO5_A3_D3_4*%
%TO.N,unconnected-(U1-GPIO5_A3_D3-Pad4)*%
X142400000Y-136900000D03*
%TO.P,U1,5,GPIO6_D4_SDA_5*%
%TO.N,unconnected-(U1-GPIO6_D4_SDA-Pad5)*%
X144940000Y-136900000D03*
%TO.P,U1,6,GPIO7_D5_SCL_6*%
%TO.N,Net-(U1-GPIO7_D5_SCL)*%
X147480000Y-136900000D03*
%TO.P,U1,7,GPIO21_D6_TX_7*%
%TO.N,Net-(U1-GPIO21_D6_TX)*%
X150020000Y-136900000D03*
%TO.P,U1,8,GPIO20_D7_RX_8*%
%TO.N,unconnected-(U1-GPIO20_D7_RX-Pad8)*%
X150020000Y-119900000D03*
%TO.P,U1,9,GPIO8_D8_SCK_9*%
%TO.N,unconnected-(U1-GPIO8_D8_SCK-Pad9)*%
X147480000Y-119900000D03*
%TO.P,U1,10,GPIO9_D9_MISO_10*%
%TO.N,unconnected-(U1-GPIO9_D9_MISO-Pad10)*%
X144940000Y-119900000D03*
%TO.P,U1,11,GPIO10_D10_MOSI_11*%
%TO.N,Net-(BZ1-+)*%
X142400000Y-119900000D03*
%TO.P,U1,12,3V3_12*%
%TO.N,+3V3*%
X139860000Y-119900000D03*
%TO.P,U1,13,GND_13*%
%TO.N,Net-(BT1--)*%
X137320000Y-119900000D03*
%TO.P,U1,14,VBUS_14*%
%TO.N,Net-(BT1-+)*%
X134780000Y-119900000D03*
D18*
%TO.P,U1,15*%
%TO.N,N/C*%
X143000000Y-126300000D03*
D19*
%TO.P,U1,16,CHIP_EN_16*%
%TO.N,unconnected-(U1-CHIP_EN-Pad16)*%
X142000000Y-132900000D03*
%TO.P,U1,17,GND_17*%
%TO.N,unconnected-(U1-GND-Pad17)*%
X140100000Y-132900000D03*
D20*
%TO.P,U1,18,GPIO5_MTDI_18*%
%TO.N,unconnected-(U1-GPIO5_MTDI-Pad18)*%
X133780000Y-129670000D03*
%TO.P,U1,19,GPIO7_MTDO_19*%
%TO.N,unconnected-(U1-GPIO7_MTDO-Pad19)*%
X136360000Y-129670000D03*
%TO.P,U1,20,GPIO4_MTMS_20*%
%TO.N,unconnected-(U1-GPIO4_MTMS-Pad20)*%
X138900000Y-129670000D03*
%TO.P,U1,21,GPIO6_MTCK_21*%
%TO.N,unconnected-(U1-GPIO6_MTCK-Pad21)*%
X138900000Y-127130000D03*
%TO.P,U1,22,BAT_22*%
%TO.N,unconnected-(U1-BAT-Pad22)*%
X136360000Y-127130000D03*
%TO.P,U1,23,GND_23*%
%TO.N,unconnected-(U1-GND-Pad23)*%
X133780000Y-127130000D03*
%TD*%
D10*
%TO.P,SW1,1,1_1*%
%TO.N,GND*%
X132500000Y-143500000D03*
D11*
%TO.P,SW1,2,2_2*%
%TO.N,Net-(U1-GPIO2_A0_D0)*%
X132500000Y-148500000D03*
%TO.P,SW1,3*%
%TO.N,N/C*%
X145000000Y-143500000D03*
%TO.P,SW1,4*%
X145000000Y-148500000D03*
%TD*%
%TO.N,Net-(BT1-+)*%
D21*
X134500000Y-114580000D02*
X134500000Y-119620000D01*
X134500000Y-119620000D02*
X134780000Y-119900000D01*
%TO.N,Net-(BZ1-+)*%
X164000000Y-151500000D02*
X168000000Y-147500000D01*
X130000000Y-129000000D02*
X130000000Y-151500000D01*
X142400000Y-119900000D02*
X142400000Y-121400000D01*
X131000000Y-128000000D02*
X130000000Y-129000000D01*
X130000000Y-151500000D02*
X132500000Y-154000000D01*
X141800000Y-122000000D02*
X131000000Y-122000000D01*
X142400000Y-121400000D02*
X141800000Y-122000000D01*
X142400000Y-119900000D02*
X142400000Y-118400000D01*
X168000000Y-147500000D02*
X168000000Y-136800000D01*
X131000000Y-122000000D02*
X131000000Y-128000000D01*
X164000000Y-154000000D02*
X164000000Y-151500000D01*
X132500000Y-154000000D02*
X164000000Y-154000000D01*
%TO.N,Net-(U1-GPIO2_A0_D0)*%
X134780000Y-146220000D02*
X134780000Y-136900000D01*
X132500000Y-148500000D02*
X134780000Y-146220000D01*
%TO.N,Net-(U1-GPIO3_A1_D1)*%
X137500000Y-145000000D02*
X143000000Y-145000000D01*
X137320000Y-144820000D02*
X137500000Y-145000000D01*
X147500000Y-146500000D02*
X147500000Y-148250000D01*
X137320000Y-136900000D02*
X137320000Y-144820000D01*
X144500000Y-146500000D02*
X147500000Y-146500000D01*
X147500000Y-148250000D02*
X147750000Y-148500000D01*
X143000000Y-145000000D02*
X144500000Y-146500000D01*
%TO.N,Net-(U1-GPIO4_A2_D2)*%
X141000000Y-141000000D02*
X155000000Y-141000000D01*
X157500000Y-143500000D02*
X157750000Y-143500000D01*
X155000000Y-141000000D02*
X157500000Y-143500000D01*
X139860000Y-139860000D02*
X141000000Y-141000000D01*
X157750000Y-143500000D02*
X162750000Y-148500000D01*
X139860000Y-136900000D02*
X139860000Y-139860000D01*
%TO.N,+3V3*%
X140000000Y-88000000D02*
X150500000Y-88000000D01*
X150500000Y-88000000D02*
X150420000Y-88080000D01*
X150420000Y-88080000D02*
X150420000Y-91000000D01*
X139860000Y-119900000D02*
X139860000Y-88140000D01*
X139860000Y-88140000D02*
X140000000Y-88000000D01*
%TO.N,Net-(U1-GPIO7_D5_SCL)*%
X153660000Y-119340000D02*
X153660000Y-91550000D01*
X147480000Y-136900000D02*
X147480000Y-125520000D01*
X147480000Y-125520000D02*
X153660000Y-119340000D01*
%TO.N,Net-(U1-GPIO21_D6_TX)*%
X150020000Y-136900000D02*
X150020000Y-126480000D01*
X156200000Y-118800000D02*
X156200000Y-91550000D01*
X155500000Y-119500000D02*
X156200000Y-118800000D01*
X150020000Y-126480000D02*
X155500000Y-121000000D01*
X155500000Y-121000000D02*
X155500000Y-119500000D01*
%TO.N,Net-(BT1--)*%
X137320000Y-119900000D02*
X137320000Y-121460000D01*
X137320000Y-112320000D02*
X137320000Y-119900000D01*
X134500000Y-109500000D02*
X137320000Y-112320000D01*
%TD*%
M02*
