%TF.GenerationSoftware,KiCad,Pcbnew,10.0.3*%
%TF.CreationDate,2026-06-21T01:39:48+05:30*%
%TF.ProjectId,Tamagotchi,54616d61-676f-4746-9368-692e6b696361,rev?*%
%TF.SameCoordinates,Original*%
%TF.FileFunction,Legend,Top*%
%TF.FilePolarity,Positive*%
%FSLAX46Y46*%
G04 Gerber Fmt 4.6, Leading zero omitted, Abs format (unit mm)*
G04 Created by KiCad (PCBNEW 10.0.3) date 2026-06-21 01:39:48*
%MOMM*%
%LPD*%
G01*
G04 APERTURE LIST*
%ADD10C,0.300000*%
%ADD11C,0.150000*%
%ADD12C,0.127000*%
%ADD13C,0.200000*%
%ADD14C,0.000000*%
%ADD15C,0.120000*%
G04 APERTURE END LIST*
D10*
X172015114Y-108945489D02*
X172086542Y-108731203D01*
X172086542Y-108731203D02*
X172157971Y-108659774D01*
X172157971Y-108659774D02*
X172300828Y-108588346D01*
X172300828Y-108588346D02*
X172515114Y-108588346D01*
X172515114Y-108588346D02*
X172657971Y-108659774D01*
X172657971Y-108659774D02*
X172729400Y-108731203D01*
X172729400Y-108731203D02*
X172800828Y-108874060D01*
X172800828Y-108874060D02*
X172800828Y-109445489D01*
X172800828Y-109445489D02*
X171300828Y-109445489D01*
X171300828Y-109445489D02*
X171300828Y-108945489D01*
X171300828Y-108945489D02*
X171372257Y-108802632D01*
X171372257Y-108802632D02*
X171443685Y-108731203D01*
X171443685Y-108731203D02*
X171586542Y-108659774D01*
X171586542Y-108659774D02*
X171729400Y-108659774D01*
X171729400Y-108659774D02*
X171872257Y-108731203D01*
X171872257Y-108731203D02*
X171943685Y-108802632D01*
X171943685Y-108802632D02*
X172015114Y-108945489D01*
X172015114Y-108945489D02*
X172015114Y-109445489D01*
X172086542Y-107659774D02*
X172800828Y-107659774D01*
X171300828Y-108159774D02*
X172086542Y-107659774D01*
X172086542Y-107659774D02*
X171300828Y-107159774D01*
X172800828Y-104659775D02*
X172086542Y-105159775D01*
X172800828Y-105516918D02*
X171300828Y-105516918D01*
X171300828Y-105516918D02*
X171300828Y-104945489D01*
X171300828Y-104945489D02*
X171372257Y-104802632D01*
X171372257Y-104802632D02*
X171443685Y-104731203D01*
X171443685Y-104731203D02*
X171586542Y-104659775D01*
X171586542Y-104659775D02*
X171800828Y-104659775D01*
X171800828Y-104659775D02*
X171943685Y-104731203D01*
X171943685Y-104731203D02*
X172015114Y-104802632D01*
X172015114Y-104802632D02*
X172086542Y-104945489D01*
X172086542Y-104945489D02*
X172086542Y-105516918D01*
X172372257Y-104088346D02*
X172372257Y-103374061D01*
X172800828Y-104231203D02*
X171300828Y-103731203D01*
X171300828Y-103731203D02*
X172800828Y-103231203D01*
X171372257Y-101945489D02*
X171300828Y-102088347D01*
X171300828Y-102088347D02*
X171300828Y-102302632D01*
X171300828Y-102302632D02*
X171372257Y-102516918D01*
X171372257Y-102516918D02*
X171515114Y-102659775D01*
X171515114Y-102659775D02*
X171657971Y-102731204D01*
X171657971Y-102731204D02*
X171943685Y-102802632D01*
X171943685Y-102802632D02*
X172157971Y-102802632D01*
X172157971Y-102802632D02*
X172443685Y-102731204D01*
X172443685Y-102731204D02*
X172586542Y-102659775D01*
X172586542Y-102659775D02*
X172729400Y-102516918D01*
X172729400Y-102516918D02*
X172800828Y-102302632D01*
X172800828Y-102302632D02*
X172800828Y-102159775D01*
X172800828Y-102159775D02*
X172729400Y-101945489D01*
X172729400Y-101945489D02*
X172657971Y-101874061D01*
X172657971Y-101874061D02*
X172157971Y-101874061D01*
X172157971Y-101874061D02*
X172157971Y-102159775D01*
X172800828Y-101231204D02*
X171300828Y-101231204D01*
X172015114Y-101231204D02*
X172015114Y-100374061D01*
X172800828Y-100374061D02*
X171300828Y-100374061D01*
X171300828Y-99802632D02*
X171300828Y-98802632D01*
X171300828Y-98802632D02*
X172800828Y-99445489D01*
X172372257Y-98302632D02*
X172372257Y-97588347D01*
X172800828Y-98445489D02*
X171300828Y-97945489D01*
X171300828Y-97945489D02*
X172800828Y-97445489D01*
X171300828Y-97159775D02*
X172800828Y-96659775D01*
X172800828Y-96659775D02*
X171300828Y-96159775D01*
D11*
X147725536Y-139020687D02*
X147839993Y-139058839D01*
X147839993Y-139058839D02*
X148030754Y-139058839D01*
X148030754Y-139058839D02*
X148107059Y-139020687D01*
X148107059Y-139020687D02*
X148145211Y-138982534D01*
X148145211Y-138982534D02*
X148183363Y-138906230D01*
X148183363Y-138906230D02*
X148183363Y-138829925D01*
X148183363Y-138829925D02*
X148145211Y-138753621D01*
X148145211Y-138753621D02*
X148107059Y-138715469D01*
X148107059Y-138715469D02*
X148030754Y-138677316D01*
X148030754Y-138677316D02*
X147878145Y-138639164D01*
X147878145Y-138639164D02*
X147801841Y-138601012D01*
X147801841Y-138601012D02*
X147763689Y-138562860D01*
X147763689Y-138562860D02*
X147725536Y-138486555D01*
X147725536Y-138486555D02*
X147725536Y-138410251D01*
X147725536Y-138410251D02*
X147763689Y-138333946D01*
X147763689Y-138333946D02*
X147801841Y-138295794D01*
X147801841Y-138295794D02*
X147878145Y-138257642D01*
X147878145Y-138257642D02*
X148068907Y-138257642D01*
X148068907Y-138257642D02*
X148183363Y-138295794D01*
X148450429Y-138257642D02*
X148641190Y-139058839D01*
X148641190Y-139058839D02*
X148793799Y-138486555D01*
X148793799Y-138486555D02*
X148946408Y-139058839D01*
X148946408Y-139058839D02*
X149137170Y-138257642D01*
X149404235Y-138333946D02*
X149442388Y-138295794D01*
X149442388Y-138295794D02*
X149518692Y-138257642D01*
X149518692Y-138257642D02*
X149709453Y-138257642D01*
X149709453Y-138257642D02*
X149785758Y-138295794D01*
X149785758Y-138295794D02*
X149823910Y-138333946D01*
X149823910Y-138333946D02*
X149862062Y-138410251D01*
X149862062Y-138410251D02*
X149862062Y-138486555D01*
X149862062Y-138486555D02*
X149823910Y-138601012D01*
X149823910Y-138601012D02*
X149366083Y-139058839D01*
X149366083Y-139058839D02*
X149862062Y-139058839D01*
X162725536Y-139020687D02*
X162839993Y-139058839D01*
X162839993Y-139058839D02*
X163030754Y-139058839D01*
X163030754Y-139058839D02*
X163107059Y-139020687D01*
X163107059Y-139020687D02*
X163145211Y-138982534D01*
X163145211Y-138982534D02*
X163183363Y-138906230D01*
X163183363Y-138906230D02*
X163183363Y-138829925D01*
X163183363Y-138829925D02*
X163145211Y-138753621D01*
X163145211Y-138753621D02*
X163107059Y-138715469D01*
X163107059Y-138715469D02*
X163030754Y-138677316D01*
X163030754Y-138677316D02*
X162878145Y-138639164D01*
X162878145Y-138639164D02*
X162801841Y-138601012D01*
X162801841Y-138601012D02*
X162763689Y-138562860D01*
X162763689Y-138562860D02*
X162725536Y-138486555D01*
X162725536Y-138486555D02*
X162725536Y-138410251D01*
X162725536Y-138410251D02*
X162763689Y-138333946D01*
X162763689Y-138333946D02*
X162801841Y-138295794D01*
X162801841Y-138295794D02*
X162878145Y-138257642D01*
X162878145Y-138257642D02*
X163068907Y-138257642D01*
X163068907Y-138257642D02*
X163183363Y-138295794D01*
X163450429Y-138257642D02*
X163641190Y-139058839D01*
X163641190Y-139058839D02*
X163793799Y-138486555D01*
X163793799Y-138486555D02*
X163946408Y-139058839D01*
X163946408Y-139058839D02*
X164137170Y-138257642D01*
X164366083Y-138257642D02*
X164862062Y-138257642D01*
X164862062Y-138257642D02*
X164594997Y-138562860D01*
X164594997Y-138562860D02*
X164709453Y-138562860D01*
X164709453Y-138562860D02*
X164785758Y-138601012D01*
X164785758Y-138601012D02*
X164823910Y-138639164D01*
X164823910Y-138639164D02*
X164862062Y-138715469D01*
X164862062Y-138715469D02*
X164862062Y-138906230D01*
X164862062Y-138906230D02*
X164823910Y-138982534D01*
X164823910Y-138982534D02*
X164785758Y-139020687D01*
X164785758Y-139020687D02*
X164709453Y-139058839D01*
X164709453Y-139058839D02*
X164480540Y-139058839D01*
X164480540Y-139058839D02*
X164404235Y-139020687D01*
X164404235Y-139020687D02*
X164366083Y-138982534D01*
X151438095Y-101858819D02*
X151438095Y-102668342D01*
X151438095Y-102668342D02*
X151485714Y-102763580D01*
X151485714Y-102763580D02*
X151533333Y-102811200D01*
X151533333Y-102811200D02*
X151628571Y-102858819D01*
X151628571Y-102858819D02*
X151819047Y-102858819D01*
X151819047Y-102858819D02*
X151914285Y-102811200D01*
X151914285Y-102811200D02*
X151961904Y-102763580D01*
X151961904Y-102763580D02*
X152009523Y-102668342D01*
X152009523Y-102668342D02*
X152009523Y-101858819D01*
X152438095Y-101954057D02*
X152485714Y-101906438D01*
X152485714Y-101906438D02*
X152580952Y-101858819D01*
X152580952Y-101858819D02*
X152819047Y-101858819D01*
X152819047Y-101858819D02*
X152914285Y-101906438D01*
X152914285Y-101906438D02*
X152961904Y-101954057D01*
X152961904Y-101954057D02*
X153009523Y-102049295D01*
X153009523Y-102049295D02*
X153009523Y-102144533D01*
X153009523Y-102144533D02*
X152961904Y-102287390D01*
X152961904Y-102287390D02*
X152390476Y-102858819D01*
X152390476Y-102858819D02*
X153009523Y-102858819D01*
X128815940Y-113954571D02*
X128863656Y-113811422D01*
X128863656Y-113811422D02*
X128911372Y-113763706D01*
X128911372Y-113763706D02*
X129006805Y-113715990D01*
X129006805Y-113715990D02*
X129149953Y-113715990D01*
X129149953Y-113715990D02*
X129245385Y-113763706D01*
X129245385Y-113763706D02*
X129293102Y-113811422D01*
X129293102Y-113811422D02*
X129340818Y-113906855D01*
X129340818Y-113906855D02*
X129340818Y-114288584D01*
X129340818Y-114288584D02*
X128338779Y-114288584D01*
X128338779Y-114288584D02*
X128338779Y-113954571D01*
X128338779Y-113954571D02*
X128386495Y-113859139D01*
X128386495Y-113859139D02*
X128434211Y-113811422D01*
X128434211Y-113811422D02*
X128529643Y-113763706D01*
X128529643Y-113763706D02*
X128625076Y-113763706D01*
X128625076Y-113763706D02*
X128720508Y-113811422D01*
X128720508Y-113811422D02*
X128768224Y-113859139D01*
X128768224Y-113859139D02*
X128815940Y-113954571D01*
X128815940Y-113954571D02*
X128815940Y-114288584D01*
X128338779Y-113429693D02*
X128338779Y-112857100D01*
X129340818Y-113143396D02*
X128338779Y-113143396D01*
X129340818Y-111998209D02*
X129340818Y-112570803D01*
X129340818Y-112284506D02*
X128338779Y-112284506D01*
X128338779Y-112284506D02*
X128481927Y-112379938D01*
X128481927Y-112379938D02*
X128577359Y-112475371D01*
X128577359Y-112475371D02*
X128625076Y-112570803D01*
X160731009Y-133880952D02*
X160778628Y-133738095D01*
X160778628Y-133738095D02*
X160826247Y-133690476D01*
X160826247Y-133690476D02*
X160921485Y-133642857D01*
X160921485Y-133642857D02*
X161064342Y-133642857D01*
X161064342Y-133642857D02*
X161159580Y-133690476D01*
X161159580Y-133690476D02*
X161207200Y-133738095D01*
X161207200Y-133738095D02*
X161254819Y-133833333D01*
X161254819Y-133833333D02*
X161254819Y-134214285D01*
X161254819Y-134214285D02*
X160254819Y-134214285D01*
X160254819Y-134214285D02*
X160254819Y-133880952D01*
X160254819Y-133880952D02*
X160302438Y-133785714D01*
X160302438Y-133785714D02*
X160350057Y-133738095D01*
X160350057Y-133738095D02*
X160445295Y-133690476D01*
X160445295Y-133690476D02*
X160540533Y-133690476D01*
X160540533Y-133690476D02*
X160635771Y-133738095D01*
X160635771Y-133738095D02*
X160683390Y-133785714D01*
X160683390Y-133785714D02*
X160731009Y-133880952D01*
X160731009Y-133880952D02*
X160731009Y-134214285D01*
X160254819Y-133309523D02*
X160254819Y-132642857D01*
X160254819Y-132642857D02*
X161254819Y-133309523D01*
X161254819Y-133309523D02*
X161254819Y-132642857D01*
X161254819Y-131738095D02*
X161254819Y-132309523D01*
X161254819Y-132023809D02*
X160254819Y-132023809D01*
X160254819Y-132023809D02*
X160397676Y-132119047D01*
X160397676Y-132119047D02*
X160492914Y-132214285D01*
X160492914Y-132214285D02*
X160540533Y-132309523D01*
X165533866Y-137190951D02*
X165533866Y-136429047D01*
X165914819Y-136809999D02*
X165152914Y-136809999D01*
X129854819Y-122161904D02*
X130664342Y-122161904D01*
X130664342Y-122161904D02*
X130759580Y-122114285D01*
X130759580Y-122114285D02*
X130807200Y-122066666D01*
X130807200Y-122066666D02*
X130854819Y-121971428D01*
X130854819Y-121971428D02*
X130854819Y-121780952D01*
X130854819Y-121780952D02*
X130807200Y-121685714D01*
X130807200Y-121685714D02*
X130759580Y-121638095D01*
X130759580Y-121638095D02*
X130664342Y-121590476D01*
X130664342Y-121590476D02*
X129854819Y-121590476D01*
X130854819Y-120590476D02*
X130854819Y-121161904D01*
X130854819Y-120876190D02*
X129854819Y-120876190D01*
X129854819Y-120876190D02*
X129997676Y-120971428D01*
X129997676Y-120971428D02*
X130092914Y-121066666D01*
X130092914Y-121066666D02*
X130140533Y-121161904D01*
X132475536Y-139020687D02*
X132589993Y-139058839D01*
X132589993Y-139058839D02*
X132780754Y-139058839D01*
X132780754Y-139058839D02*
X132857059Y-139020687D01*
X132857059Y-139020687D02*
X132895211Y-138982534D01*
X132895211Y-138982534D02*
X132933363Y-138906230D01*
X132933363Y-138906230D02*
X132933363Y-138829925D01*
X132933363Y-138829925D02*
X132895211Y-138753621D01*
X132895211Y-138753621D02*
X132857059Y-138715469D01*
X132857059Y-138715469D02*
X132780754Y-138677316D01*
X132780754Y-138677316D02*
X132628145Y-138639164D01*
X132628145Y-138639164D02*
X132551841Y-138601012D01*
X132551841Y-138601012D02*
X132513689Y-138562860D01*
X132513689Y-138562860D02*
X132475536Y-138486555D01*
X132475536Y-138486555D02*
X132475536Y-138410251D01*
X132475536Y-138410251D02*
X132513689Y-138333946D01*
X132513689Y-138333946D02*
X132551841Y-138295794D01*
X132551841Y-138295794D02*
X132628145Y-138257642D01*
X132628145Y-138257642D02*
X132818907Y-138257642D01*
X132818907Y-138257642D02*
X132933363Y-138295794D01*
X133200429Y-138257642D02*
X133391190Y-139058839D01*
X133391190Y-139058839D02*
X133543799Y-138486555D01*
X133543799Y-138486555D02*
X133696408Y-139058839D01*
X133696408Y-139058839D02*
X133887170Y-138257642D01*
X134612062Y-139058839D02*
X134154235Y-139058839D01*
X134383149Y-139058839D02*
X134383149Y-138257642D01*
X134383149Y-138257642D02*
X134306844Y-138372098D01*
X134306844Y-138372098D02*
X134230540Y-138448403D01*
X134230540Y-138448403D02*
X134154235Y-138486555D01*
%TO.C,SW2*%
D12*
X148000000Y-140000000D02*
X160000000Y-140000000D01*
X148000000Y-142205000D02*
X148000000Y-140000000D01*
X148000000Y-144795000D02*
X148000000Y-147205000D01*
X148000000Y-149800000D02*
X148000000Y-152000000D01*
X148000000Y-152000000D02*
X160000000Y-152000000D01*
X160000000Y-140000000D02*
X160000000Y-142205000D01*
X160000000Y-144795000D02*
X160000000Y-147205000D01*
X160000000Y-152000000D02*
X160000000Y-149800000D01*
D13*
X147100000Y-141500000D02*
G75*
G02*
X146900000Y-141500000I-100000J0D01*
G01*
X146900000Y-141500000D02*
G75*
G02*
X147100000Y-141500000I100000J0D01*
G01*
%TO.C,SW3*%
D12*
X163000000Y-140000000D02*
X175000000Y-140000000D01*
X163000000Y-142205000D02*
X163000000Y-140000000D01*
X163000000Y-144795000D02*
X163000000Y-147205000D01*
X163000000Y-149800000D02*
X163000000Y-152000000D01*
X163000000Y-152000000D02*
X175000000Y-152000000D01*
X175000000Y-140000000D02*
X175000000Y-142205000D01*
X175000000Y-144795000D02*
X175000000Y-147205000D01*
X175000000Y-152000000D02*
X175000000Y-149800000D01*
D13*
X162100000Y-141500000D02*
G75*
G02*
X161900000Y-141500000I-100000J0D01*
G01*
X161900000Y-141500000D02*
G75*
G02*
X162100000Y-141500000I100000J0D01*
G01*
D14*
%TO.C,G\u002A\u002A\u002A*%
G36*
X169574121Y-114447415D02*
G01*
X169605085Y-114455329D01*
X169663825Y-114485312D01*
X169703616Y-114536078D01*
X169727056Y-114610945D01*
X169727086Y-114611105D01*
X169730451Y-114697524D01*
X169713432Y-114791298D01*
X169679450Y-114885342D01*
X169631925Y-114972574D01*
X169574279Y-115045908D01*
X169509934Y-115098263D01*
X169485849Y-115110585D01*
X169419231Y-115128990D01*
X169351988Y-115130635D01*
X169294477Y-115116077D01*
X169267989Y-115098914D01*
X169219168Y-115033544D01*
X169195002Y-114954027D01*
X169195217Y-114864088D01*
X169219536Y-114767453D01*
X169267683Y-114667848D01*
X169303941Y-114613528D01*
X169356564Y-114550456D01*
X169410629Y-114506068D01*
X169457963Y-114479489D01*
X169508175Y-114456427D01*
X169543063Y-114446365D01*
X169574121Y-114447415D01*
G37*
G36*
X172162495Y-114447104D02*
G01*
X172240595Y-114472133D01*
X172304432Y-114521336D01*
X172356894Y-114597153D01*
X172368966Y-114621394D01*
X172392860Y-114675967D01*
X172405873Y-114719693D01*
X172410365Y-114765686D01*
X172408696Y-114827060D01*
X172408054Y-114838527D01*
X172391323Y-114950219D01*
X172355763Y-115040610D01*
X172302187Y-115107808D01*
X172287077Y-115120024D01*
X172238371Y-115143994D01*
X172180127Y-115156264D01*
X172125504Y-115155079D01*
X172096678Y-115145425D01*
X172046920Y-115109207D01*
X171998305Y-115062109D01*
X171962710Y-115015889D01*
X171958753Y-115008862D01*
X171930957Y-114933303D01*
X171915062Y-114842820D01*
X171912831Y-114751444D01*
X171919627Y-114697817D01*
X171947028Y-114612377D01*
X171988827Y-114540285D01*
X172040901Y-114485796D01*
X172099129Y-114453166D01*
X172159388Y-114446650D01*
X172162495Y-114447104D01*
G37*
G36*
X170940209Y-114617383D02*
G01*
X171021284Y-114636605D01*
X171095349Y-114664737D01*
X171153186Y-114698582D01*
X171175251Y-114719078D01*
X171215117Y-114782486D01*
X171225251Y-114843840D01*
X171205413Y-114904691D01*
X171155364Y-114966586D01*
X171134047Y-114985913D01*
X171063173Y-115032123D01*
X170971137Y-115071206D01*
X170866374Y-115101445D01*
X170757319Y-115121125D01*
X170652406Y-115128530D01*
X170560068Y-115121944D01*
X170516847Y-115111456D01*
X170453729Y-115087794D01*
X170411997Y-115062838D01*
X170382955Y-115029295D01*
X170357904Y-114979869D01*
X170356742Y-114977178D01*
X170334564Y-114910040D01*
X170334390Y-114854625D01*
X170357047Y-114800464D01*
X170372534Y-114777021D01*
X170414862Y-114737531D01*
X170481035Y-114699628D01*
X170564230Y-114665638D01*
X170657627Y-114637890D01*
X170754401Y-114618709D01*
X170847731Y-114610425D01*
X170861343Y-114610265D01*
X170940209Y-114617383D01*
G37*
G36*
X170928260Y-116733079D02*
G01*
X170985285Y-116755235D01*
X171022177Y-116798096D01*
X171041198Y-116864438D01*
X171042248Y-116872862D01*
X171049079Y-116915716D01*
X171058810Y-116933759D01*
X171074642Y-116932856D01*
X171074945Y-116932727D01*
X171169820Y-116904089D01*
X171255673Y-116904298D01*
X171334765Y-116933670D01*
X171393967Y-116977719D01*
X171439752Y-117039014D01*
X171458874Y-117111219D01*
X171450313Y-117188410D01*
X171436419Y-117224770D01*
X171402807Y-117277193D01*
X171350078Y-117338595D01*
X171285397Y-117402137D01*
X171215929Y-117460980D01*
X171148839Y-117508283D01*
X171124908Y-117522105D01*
X171072416Y-117549700D01*
X171040562Y-117564562D01*
X171023029Y-117568604D01*
X171013500Y-117563740D01*
X171008936Y-117557243D01*
X171013059Y-117537132D01*
X171041207Y-117509989D01*
X171088831Y-117479950D01*
X171100659Y-117473775D01*
X171147762Y-117443414D01*
X171205672Y-117396779D01*
X171265981Y-117341509D01*
X171320278Y-117285243D01*
X171355454Y-117242300D01*
X171388685Y-117177582D01*
X171398733Y-117111851D01*
X171384760Y-117053276D01*
X171376315Y-117039108D01*
X171335937Y-117002209D01*
X171277874Y-116973199D01*
X171215057Y-116957992D01*
X171196804Y-116957005D01*
X171145330Y-116967362D01*
X171092301Y-116993924D01*
X171047986Y-117029928D01*
X171022649Y-117068610D01*
X171021529Y-117072468D01*
X171002565Y-117103902D01*
X170981210Y-117110386D01*
X170959442Y-117104801D01*
X170958972Y-117082548D01*
X170960852Y-117075875D01*
X170967611Y-117042697D01*
X170974719Y-116991000D01*
X170979829Y-116940778D01*
X170981237Y-116869863D01*
X170969366Y-116823595D01*
X170941607Y-116797859D01*
X170895349Y-116788541D01*
X170883106Y-116788285D01*
X170805466Y-116802780D01*
X170736218Y-116843826D01*
X170678433Y-116907761D01*
X170635185Y-116990924D01*
X170609545Y-117089654D01*
X170606041Y-117118488D01*
X170598080Y-117179191D01*
X170588446Y-117211248D01*
X170577559Y-117214001D01*
X170565837Y-117186790D01*
X170564860Y-117183243D01*
X170554592Y-117094381D01*
X170568336Y-117006053D01*
X170602468Y-116922750D01*
X170653359Y-116848965D01*
X170717385Y-116789190D01*
X170790918Y-116747918D01*
X170870331Y-116729641D01*
X170928260Y-116733079D01*
G37*
G36*
X170853473Y-112222222D02*
G01*
X170986000Y-112235978D01*
X171131306Y-112258436D01*
X171294215Y-112289702D01*
X171479551Y-112329883D01*
X171566500Y-112349734D01*
X171704352Y-112381273D01*
X171816456Y-112405839D01*
X171906875Y-112423681D01*
X171979675Y-112435047D01*
X172038921Y-112440185D01*
X172088678Y-112439344D01*
X172133011Y-112432773D01*
X172175984Y-112420719D01*
X172221664Y-112403431D01*
X172250060Y-112391506D01*
X172436400Y-112322183D01*
X172622927Y-112272524D01*
X172804970Y-112243155D01*
X172977859Y-112234699D01*
X173136925Y-112247783D01*
X173211115Y-112262923D01*
X173353385Y-112304908D01*
X173470068Y-112353530D01*
X173565968Y-112411236D01*
X173645887Y-112480477D01*
X173653523Y-112488491D01*
X173702540Y-112546430D01*
X173748855Y-112610624D01*
X173783114Y-112668013D01*
X173785359Y-112672549D01*
X173804808Y-112716078D01*
X173817902Y-112756609D01*
X173826219Y-112802693D01*
X173831336Y-112862884D01*
X173834630Y-112939690D01*
X173835969Y-113041910D01*
X173831741Y-113122628D01*
X173821341Y-113190612D01*
X173815635Y-113214969D01*
X173787794Y-113301235D01*
X173746689Y-113400776D01*
X173697505Y-113502833D01*
X173645427Y-113596645D01*
X173595680Y-113671402D01*
X173562474Y-113717341D01*
X173545837Y-113749072D01*
X173542407Y-113775706D01*
X173547534Y-113801777D01*
X173555753Y-113831481D01*
X173570724Y-113885316D01*
X173590939Y-113957868D01*
X173614890Y-114043724D01*
X173641068Y-114137471D01*
X173644602Y-114150121D01*
X173679602Y-114276047D01*
X173713507Y-114399268D01*
X173744989Y-114514866D01*
X173772719Y-114617922D01*
X173795370Y-114703517D01*
X173811613Y-114766734D01*
X173816499Y-114786654D01*
X173827088Y-114854051D01*
X173832860Y-114940140D01*
X173833616Y-115033287D01*
X173829160Y-115121860D01*
X173823049Y-115173563D01*
X173806797Y-115261788D01*
X173784184Y-115364570D01*
X173757299Y-115474019D01*
X173728230Y-115582247D01*
X173699067Y-115681364D01*
X173671898Y-115763482D01*
X173655829Y-115805113D01*
X173626513Y-115866927D01*
X173587155Y-115940319D01*
X173545163Y-116011636D01*
X173535326Y-116027222D01*
X173457744Y-116148104D01*
X173503532Y-116318647D01*
X173539163Y-116437721D01*
X173585413Y-116571106D01*
X173640387Y-116714804D01*
X173702189Y-116864814D01*
X173768924Y-117017136D01*
X173838698Y-117167772D01*
X173909614Y-117312721D01*
X173979777Y-117447983D01*
X174047293Y-117569558D01*
X174110266Y-117673447D01*
X174166800Y-117755650D01*
X174207738Y-117804818D01*
X174256945Y-117858734D01*
X174291420Y-117905057D01*
X174315457Y-117952790D01*
X174333351Y-118010938D01*
X174349399Y-118088507D01*
X174353256Y-118109911D01*
X174361683Y-118173673D01*
X174368964Y-118260586D01*
X174375050Y-118365823D01*
X174379890Y-118484558D01*
X174383430Y-118611965D01*
X174385622Y-118743216D01*
X174386412Y-118873486D01*
X174385749Y-118997947D01*
X174383583Y-119111774D01*
X174379862Y-119210140D01*
X174374534Y-119288219D01*
X174367548Y-119341183D01*
X174366415Y-119346407D01*
X174336412Y-119446137D01*
X174297271Y-119533673D01*
X174252985Y-119600269D01*
X174247878Y-119606042D01*
X174216851Y-119639923D01*
X174273954Y-119805439D01*
X174297125Y-119868290D01*
X174330331Y-119952464D01*
X174370856Y-120051380D01*
X174415987Y-120158459D01*
X174463008Y-120267121D01*
X174484631Y-120316063D01*
X174614227Y-120621885D01*
X174721736Y-120907578D01*
X174807373Y-121174079D01*
X174871350Y-121422326D01*
X174913880Y-121653255D01*
X174935178Y-121867804D01*
X174935455Y-122066909D01*
X174919175Y-122225664D01*
X174869140Y-122454729D01*
X174790288Y-122686652D01*
X174683946Y-122918601D01*
X174551441Y-123147744D01*
X174394101Y-123371248D01*
X174364755Y-123408761D01*
X174331370Y-123451220D01*
X174283823Y-123512259D01*
X174226595Y-123586097D01*
X174164168Y-123666953D01*
X174102939Y-123746548D01*
X173915842Y-123990248D01*
X173780838Y-124039462D01*
X173666226Y-124078356D01*
X173554397Y-124109650D01*
X173437736Y-124134902D01*
X173308630Y-124155672D01*
X173159464Y-124173516D01*
X173093659Y-124180071D01*
X173001701Y-124187018D01*
X172887155Y-124192886D01*
X172757270Y-124197549D01*
X172619295Y-124200884D01*
X172480479Y-124202768D01*
X172348072Y-124203077D01*
X172229321Y-124201688D01*
X172131478Y-124198475D01*
X172104347Y-124196952D01*
X172017706Y-124190303D01*
X171927121Y-124181592D01*
X171845765Y-124172161D01*
X171805436Y-124166494D01*
X171733403Y-124152169D01*
X171674723Y-124131536D01*
X171625441Y-124100685D01*
X171581606Y-124055710D01*
X171539264Y-123992701D01*
X171494463Y-123907751D01*
X171452463Y-123817526D01*
X171437428Y-123817491D01*
X171396029Y-123819177D01*
X171332517Y-123822363D01*
X171251144Y-123826828D01*
X171156160Y-123832352D01*
X171091278Y-123836275D01*
X170962754Y-123843433D01*
X170819845Y-123850185D01*
X170673670Y-123856085D01*
X170535347Y-123860684D01*
X170415994Y-123863536D01*
X170411179Y-123863617D01*
X170090777Y-123868905D01*
X170055494Y-123938330D01*
X169994496Y-124025981D01*
X169912185Y-124091836D01*
X169822727Y-124131022D01*
X169776635Y-124139966D01*
X169704580Y-124147284D01*
X169611230Y-124152976D01*
X169501257Y-124157041D01*
X169379328Y-124159479D01*
X169250115Y-124160290D01*
X169118287Y-124159473D01*
X168988513Y-124157028D01*
X168865464Y-124152956D01*
X168753808Y-124147254D01*
X168658216Y-124139924D01*
X168584239Y-124131102D01*
X168511297Y-124120615D01*
X168417054Y-124108175D01*
X168310729Y-124094938D01*
X168201539Y-124082060D01*
X168128237Y-124073869D01*
X168007232Y-124059021D01*
X167883870Y-124040843D01*
X167763297Y-124020355D01*
X167650662Y-123998579D01*
X167551112Y-123976533D01*
X167469792Y-123955240D01*
X167411850Y-123935718D01*
X167396840Y-123928877D01*
X167343042Y-123888498D01*
X167286283Y-123823388D01*
X167230827Y-123738631D01*
X167218071Y-123715719D01*
X167190770Y-123668611D01*
X167151991Y-123606166D01*
X167107884Y-123538149D01*
X167081424Y-123498732D01*
X167005150Y-123383496D01*
X166944025Y-123282775D01*
X166893198Y-123187822D01*
X166847822Y-123089890D01*
X166826279Y-123038587D01*
X166769894Y-122900543D01*
X166618733Y-122797304D01*
X166515497Y-122731046D01*
X166396158Y-122661346D01*
X166270327Y-122593350D01*
X166147614Y-122532205D01*
X166037631Y-122483060D01*
X166014818Y-122473866D01*
X165956762Y-122452748D01*
X165880673Y-122427401D01*
X165798129Y-122401599D01*
X165746400Y-122386344D01*
X165638429Y-122352631D01*
X165552519Y-122318284D01*
X165480297Y-122278819D01*
X165413390Y-122229752D01*
X165352702Y-122175490D01*
X165257338Y-122064242D01*
X165181870Y-121932910D01*
X165128186Y-121786246D01*
X165098174Y-121629000D01*
X165092250Y-121520108D01*
X165094622Y-121491504D01*
X165156829Y-121491504D01*
X165166220Y-121661712D01*
X165171675Y-121697551D01*
X165210447Y-121840040D01*
X165275088Y-121971714D01*
X165362306Y-122088889D01*
X165468807Y-122187884D01*
X165591298Y-122265016D01*
X165724920Y-122316181D01*
X165845790Y-122352511D01*
X165974016Y-122397556D01*
X166104890Y-122449101D01*
X166233705Y-122504931D01*
X166355751Y-122562830D01*
X166466322Y-122620584D01*
X166560709Y-122675978D01*
X166634204Y-122726798D01*
X166675462Y-122763377D01*
X166711123Y-122791252D01*
X166739316Y-122795088D01*
X166754836Y-122775468D01*
X166756045Y-122754352D01*
X166740531Y-122520757D01*
X166732690Y-122315578D01*
X166732639Y-122263975D01*
X166769486Y-122263975D01*
X166772164Y-122386715D01*
X166786270Y-122582061D01*
X166813519Y-122758021D01*
X166856238Y-122921338D01*
X166916752Y-123078754D01*
X166997386Y-123237011D01*
X167100467Y-123402850D01*
X167145162Y-123468055D01*
X167190028Y-123533632D01*
X167230713Y-123595874D01*
X167262485Y-123647370D01*
X167279627Y-123678577D01*
X167314996Y-123738374D01*
X167361722Y-123797282D01*
X167412468Y-123847483D01*
X167459898Y-123881161D01*
X167476418Y-123888292D01*
X167551230Y-123908963D01*
X167649063Y-123930962D01*
X167762380Y-123952922D01*
X167883644Y-123973475D01*
X168005320Y-123991254D01*
X168117892Y-124004687D01*
X168224218Y-124016471D01*
X168342906Y-124030951D01*
X168460033Y-124046357D01*
X168561674Y-124060919D01*
X168568901Y-124062022D01*
X168638263Y-124072026D01*
X168704295Y-124079863D01*
X168772216Y-124085795D01*
X168847241Y-124090085D01*
X168934588Y-124092995D01*
X169039476Y-124094787D01*
X169167121Y-124095724D01*
X169243780Y-124095960D01*
X169402900Y-124095841D01*
X169534639Y-124094090D01*
X169642286Y-124089701D01*
X169729132Y-124081669D01*
X169798465Y-124068991D01*
X169853575Y-124050661D01*
X169897750Y-124025674D01*
X169934281Y-123993027D01*
X169966455Y-123951713D01*
X169997564Y-123900729D01*
X170020485Y-123858715D01*
X170058834Y-123791421D01*
X170087976Y-123751739D01*
X170109316Y-123738496D01*
X170124257Y-123750522D01*
X170130168Y-123767150D01*
X170133113Y-123777894D01*
X170138142Y-123786002D01*
X170149106Y-123791814D01*
X170169852Y-123795673D01*
X170204228Y-123797920D01*
X170256085Y-123798897D01*
X170329269Y-123798946D01*
X170427630Y-123798408D01*
X170478502Y-123798083D01*
X170593675Y-123796071D01*
X170731001Y-123791583D01*
X170882092Y-123785018D01*
X171038562Y-123776774D01*
X171192023Y-123767251D01*
X171317416Y-123758169D01*
X171379239Y-123752824D01*
X171416852Y-123747059D01*
X171436650Y-123738407D01*
X171445031Y-123724400D01*
X171447790Y-123707888D01*
X171457091Y-123673065D01*
X171472019Y-123665911D01*
X171490254Y-123684465D01*
X171509476Y-123726767D01*
X171522713Y-123771181D01*
X171544916Y-123838690D01*
X171577554Y-123914463D01*
X171612098Y-123979520D01*
X171675304Y-124084130D01*
X171908999Y-124110321D01*
X172005569Y-124120213D01*
X172105760Y-124128893D01*
X172199017Y-124135542D01*
X172274784Y-124139343D01*
X172288405Y-124139723D01*
X172398466Y-124140586D01*
X172525730Y-124139015D01*
X172663087Y-124135319D01*
X172803422Y-124129810D01*
X172939623Y-124122798D01*
X173064578Y-124114593D01*
X173171172Y-124105506D01*
X173233404Y-124098481D01*
X173375004Y-124076516D01*
X173508702Y-124049234D01*
X173630415Y-124017888D01*
X173736060Y-123983735D01*
X173821553Y-123948029D01*
X173882812Y-123912025D01*
X173905207Y-123891978D01*
X173931343Y-123859939D01*
X173964784Y-123815633D01*
X173981898Y-123791859D01*
X174006802Y-123757897D01*
X174046585Y-123705198D01*
X174097148Y-123639124D01*
X174154388Y-123565038D01*
X174205676Y-123499201D01*
X174299189Y-123378644D01*
X174376090Y-123276853D01*
X174439504Y-123189110D01*
X174492556Y-123110699D01*
X174538372Y-123036901D01*
X174580078Y-122962999D01*
X174620798Y-122884276D01*
X174642950Y-122839191D01*
X174737517Y-122624037D01*
X174806405Y-122419538D01*
X174850325Y-122220709D01*
X174869986Y-122022564D01*
X174866099Y-121820118D01*
X174839375Y-121608384D01*
X174827414Y-121544331D01*
X174788344Y-121366191D01*
X174742143Y-121190628D01*
X174687000Y-121012295D01*
X174621106Y-120825842D01*
X174542653Y-120625919D01*
X174449832Y-120407177D01*
X174419796Y-120339070D01*
X174373429Y-120233179D01*
X174327733Y-120126021D01*
X174285445Y-120024224D01*
X174249303Y-119934413D01*
X174222042Y-119863218D01*
X174214186Y-119841285D01*
X174191188Y-119776120D01*
X174171529Y-119722419D01*
X174157517Y-119686359D01*
X174151791Y-119674214D01*
X174136173Y-119676517D01*
X174125521Y-119683704D01*
X174093633Y-119701933D01*
X174039368Y-119724679D01*
X173970188Y-119749353D01*
X173893560Y-119773368D01*
X173816947Y-119794136D01*
X173786082Y-119801375D01*
X173723491Y-119814405D01*
X173677954Y-119820099D01*
X173636732Y-119818426D01*
X173587086Y-119809359D01*
X173549990Y-119800837D01*
X173434398Y-119773616D01*
X173387482Y-119833939D01*
X173323898Y-119907783D01*
X173244981Y-119984459D01*
X173146465Y-120067863D01*
X173047645Y-120144324D01*
X172965988Y-120204148D01*
X172899041Y-120248556D01*
X172838014Y-120281850D01*
X172774116Y-120308330D01*
X172698556Y-120332300D01*
X172620156Y-120353507D01*
X172451584Y-120384758D01*
X172290018Y-120389768D01*
X172138619Y-120368727D01*
X172000553Y-120321826D01*
X171987070Y-120315463D01*
X171890352Y-120253672D01*
X171798089Y-120166788D01*
X171714320Y-120060389D01*
X171643086Y-119940056D01*
X171588426Y-119811368D01*
X171565449Y-119733212D01*
X171553869Y-119662931D01*
X171547036Y-119572987D01*
X171544826Y-119472318D01*
X171547118Y-119369861D01*
X171553789Y-119274553D01*
X171564717Y-119195331D01*
X171573304Y-119159112D01*
X171612723Y-119051537D01*
X171671140Y-118925634D01*
X171746390Y-118785280D01*
X171836306Y-118634353D01*
X171938720Y-118476731D01*
X172019573Y-118360447D01*
X172094592Y-118256732D01*
X172156183Y-118175062D01*
X172207748Y-118111838D01*
X172252694Y-118063460D01*
X172294423Y-118026328D01*
X172336342Y-117996842D01*
X172381853Y-117971403D01*
X172392561Y-117966053D01*
X172435401Y-117945488D01*
X172470191Y-117931549D01*
X172504419Y-117923072D01*
X172545570Y-117918892D01*
X172601130Y-117917843D01*
X172678586Y-117918760D01*
X172694683Y-117919031D01*
X172785280Y-117921717D01*
X172885032Y-117926575D01*
X172986931Y-117933074D01*
X173083967Y-117940681D01*
X173169135Y-117948864D01*
X173235425Y-117957090D01*
X173266213Y-117962451D01*
X173289422Y-117975564D01*
X173301185Y-117995714D01*
X173297392Y-118011982D01*
X173286127Y-118015338D01*
X173266730Y-118013991D01*
X173222060Y-118010256D01*
X173157390Y-118004593D01*
X173077991Y-117997464D01*
X173006206Y-117990902D01*
X172853532Y-117978485D01*
X172727620Y-117972131D01*
X172625127Y-117971999D01*
X172542712Y-117978246D01*
X172477033Y-117991031D01*
X172424747Y-118010513D01*
X172408509Y-118019226D01*
X172348167Y-118062051D01*
X172282255Y-118123759D01*
X172208869Y-118206504D01*
X172126110Y-118312442D01*
X172032074Y-118443728D01*
X172025535Y-118453178D01*
X171901177Y-118640459D01*
X171796612Y-118813342D01*
X171712977Y-118969844D01*
X171655889Y-119096678D01*
X171636837Y-119145475D01*
X171623454Y-119185855D01*
X171614729Y-119225009D01*
X171609651Y-119270132D01*
X171607210Y-119328416D01*
X171606393Y-119407052D01*
X171606288Y-119449456D01*
X171606685Y-119543297D01*
X171608747Y-119613741D01*
X171613248Y-119668055D01*
X171620964Y-119713505D01*
X171632669Y-119757359D01*
X171642256Y-119786896D01*
X171706061Y-119939858D01*
X171785278Y-120068515D01*
X171878971Y-120171896D01*
X171986206Y-120249029D01*
X172106046Y-120298943D01*
X172144683Y-120308542D01*
X172312784Y-120329811D01*
X172481201Y-120321753D01*
X172622402Y-120293208D01*
X172710570Y-120268108D01*
X172778544Y-120244252D01*
X172836268Y-120217163D01*
X172893686Y-120182367D01*
X172940277Y-120150131D01*
X172991394Y-120115536D01*
X173041278Y-120084836D01*
X173067600Y-120070516D01*
X173098719Y-120048534D01*
X173143156Y-120008729D01*
X173195399Y-119957024D01*
X173249938Y-119899338D01*
X173301261Y-119841593D01*
X173343857Y-119789709D01*
X173372213Y-119749609D01*
X173379460Y-119735488D01*
X173396196Y-119710753D01*
X173412139Y-119706214D01*
X173435560Y-119713148D01*
X173479680Y-119725109D01*
X173535447Y-119739651D01*
X173541989Y-119741325D01*
X173604960Y-119755925D01*
X173652913Y-119761676D01*
X173700031Y-119759123D01*
X173756723Y-119749540D01*
X173838208Y-119730128D01*
X173923685Y-119703660D01*
X174005404Y-119673135D01*
X174075610Y-119641552D01*
X174126553Y-119611908D01*
X174139601Y-119601450D01*
X174168916Y-119576813D01*
X174188642Y-119564739D01*
X174190140Y-119564493D01*
X174204520Y-119551344D01*
X174225746Y-119516920D01*
X174250122Y-119468750D01*
X174273949Y-119414365D01*
X174293528Y-119361296D01*
X174299352Y-119342089D01*
X174306212Y-119300671D01*
X174311800Y-119233454D01*
X174316110Y-119145288D01*
X174319134Y-119041026D01*
X174320867Y-118925518D01*
X174321300Y-118803615D01*
X174320427Y-118680168D01*
X174318241Y-118560029D01*
X174314735Y-118448048D01*
X174309901Y-118349077D01*
X174303733Y-118267967D01*
X174300941Y-118242025D01*
X174287147Y-118138399D01*
X174272414Y-118058705D01*
X174254210Y-117996242D01*
X174230006Y-117944308D01*
X174197273Y-117896199D01*
X174153480Y-117845215D01*
X174149537Y-117840934D01*
X174103824Y-117785656D01*
X174051841Y-117713703D01*
X174001075Y-117635819D01*
X173970775Y-117584426D01*
X173905241Y-117462030D01*
X173835713Y-117323079D01*
X173764606Y-117173140D01*
X173694335Y-117017779D01*
X173627314Y-116862562D01*
X173565960Y-116713054D01*
X173512686Y-116574822D01*
X173469907Y-116453431D01*
X173444914Y-116372366D01*
X173420985Y-116286520D01*
X173405466Y-116223077D01*
X173399050Y-116174748D01*
X173402428Y-116134247D01*
X173416294Y-116094287D01*
X173441340Y-116047579D01*
X173478259Y-115986837D01*
X173482158Y-115980481D01*
X173534312Y-115892503D01*
X173574985Y-115815488D01*
X173607918Y-115740386D01*
X173636850Y-115658147D01*
X173665522Y-115559719D01*
X173682390Y-115495972D01*
X173720394Y-115337627D01*
X173748022Y-115197319D01*
X173764846Y-115077860D01*
X173770435Y-114982064D01*
X173767965Y-114934875D01*
X173756651Y-114864356D01*
X173736277Y-114767348D01*
X173707485Y-114646465D01*
X173670916Y-114504319D01*
X173627214Y-114343523D01*
X173592113Y-114219142D01*
X173565108Y-114124299D01*
X173538587Y-114030300D01*
X173514749Y-113945003D01*
X173495796Y-113876264D01*
X173487203Y-113844433D01*
X173456914Y-113730473D01*
X173525818Y-113645887D01*
X173589284Y-113558164D01*
X173645947Y-113457499D01*
X173699667Y-113336659D01*
X173723137Y-113275845D01*
X173742098Y-113221413D01*
X173754564Y-113173731D01*
X173761889Y-113123477D01*
X173765424Y-113061328D01*
X173766522Y-112977961D01*
X173766526Y-112976751D01*
X173766230Y-112896212D01*
X173763937Y-112838459D01*
X173758462Y-112795614D01*
X173748619Y-112759796D01*
X173733224Y-112723127D01*
X173726160Y-112708333D01*
X173669277Y-112609579D01*
X173601074Y-112527999D01*
X173517413Y-112460655D01*
X173414157Y-112404609D01*
X173287171Y-112356922D01*
X173193357Y-112329911D01*
X173115199Y-112310935D01*
X173051962Y-112300521D01*
X172989560Y-112297255D01*
X172913906Y-112299725D01*
X172900340Y-112300515D01*
X172759907Y-112316650D01*
X172607983Y-112347221D01*
X172458181Y-112389030D01*
X172339852Y-112432190D01*
X172266197Y-112459516D01*
X172184000Y-112485038D01*
X172118865Y-112501440D01*
X172071870Y-112510847D01*
X172034401Y-112515792D01*
X171998604Y-112515685D01*
X171956625Y-112509930D01*
X171900611Y-112497935D01*
X171822707Y-112479107D01*
X171822474Y-112479050D01*
X171647047Y-112436196D01*
X171497810Y-112400319D01*
X171371233Y-112370797D01*
X171263786Y-112347013D01*
X171171937Y-112328346D01*
X171092157Y-112314178D01*
X171020915Y-112303889D01*
X170954679Y-112296861D01*
X170889921Y-112292474D01*
X170823108Y-112290110D01*
X170750710Y-112289148D01*
X170739251Y-112289087D01*
X170629307Y-112289727D01*
X170540070Y-112293331D01*
X170461645Y-112300714D01*
X170384138Y-112312695D01*
X170332789Y-112322671D01*
X170148550Y-112362670D01*
X169990418Y-112401899D01*
X169853900Y-112441774D01*
X169734505Y-112483711D01*
X169627740Y-112529124D01*
X169543985Y-112571292D01*
X169493661Y-112595516D01*
X169449146Y-112611857D01*
X169425845Y-112616304D01*
X169398892Y-112611253D01*
X169349721Y-112597426D01*
X169284839Y-112576812D01*
X169210755Y-112551401D01*
X169194662Y-112545649D01*
X168999433Y-112478069D01*
X168827247Y-112424737D01*
X168674263Y-112385129D01*
X168536639Y-112358721D01*
X168410535Y-112344987D01*
X168292109Y-112343402D01*
X168177518Y-112353443D01*
X168062923Y-112374585D01*
X168019632Y-112385147D01*
X167909547Y-112420873D01*
X167825577Y-112466417D01*
X167764645Y-112525659D01*
X167723671Y-112602480D01*
X167699576Y-112700762D01*
X167690241Y-112800351D01*
X167691087Y-112933010D01*
X167707988Y-113061139D01*
X167742650Y-113191914D01*
X167796781Y-113332513D01*
X167838138Y-113422149D01*
X167882106Y-113509340D01*
X167918628Y-113573014D01*
X167951044Y-113618371D01*
X167982694Y-113650610D01*
X167987415Y-113654502D01*
X168047403Y-113702657D01*
X168046663Y-113838194D01*
X168045552Y-113887270D01*
X168042011Y-113932918D01*
X168034864Y-113980702D01*
X168022937Y-114036187D01*
X168005053Y-114104936D01*
X167980038Y-114192513D01*
X167951615Y-114288164D01*
X167900198Y-114461782D01*
X167857795Y-114610855D01*
X167823563Y-114739890D01*
X167796656Y-114853391D01*
X167776232Y-114955863D01*
X167761445Y-115051812D01*
X167751454Y-115145743D01*
X167745413Y-115242161D01*
X167742478Y-115345571D01*
X167741879Y-115407850D01*
X167741699Y-115506620D01*
X167742645Y-115581161D01*
X167745381Y-115637916D01*
X167750571Y-115683329D01*
X167758878Y-115723843D01*
X167770967Y-115765903D01*
X167782342Y-115800633D01*
X167827564Y-115915569D01*
X167883035Y-116025063D01*
X167944069Y-116120893D01*
X168005982Y-116194833D01*
X168008230Y-116197044D01*
X168042575Y-116237383D01*
X168064823Y-116276774D01*
X168072627Y-116308648D01*
X168063640Y-116326438D01*
X168055072Y-116328140D01*
X168047096Y-116342254D01*
X168041622Y-116379765D01*
X168039734Y-116429852D01*
X168034977Y-116496478D01*
X168019988Y-116573819D01*
X167993685Y-116665379D01*
X167954988Y-116774665D01*
X167902817Y-116905181D01*
X167867818Y-116987681D01*
X167833761Y-117068152D01*
X167799957Y-117150566D01*
X167770696Y-117224326D01*
X167752915Y-117271437D01*
X167728974Y-117332799D01*
X167696531Y-117409572D01*
X167660760Y-117489708D01*
X167640907Y-117532186D01*
X167579784Y-117661677D01*
X167531244Y-117768182D01*
X167493769Y-117855961D01*
X167465846Y-117929274D01*
X167445959Y-117992380D01*
X167432594Y-118049541D01*
X167424235Y-118105014D01*
X167419976Y-118153381D01*
X167417928Y-118218828D01*
X167418715Y-118304086D01*
X167421979Y-118404530D01*
X167427364Y-118515535D01*
X167434511Y-118632475D01*
X167443062Y-118750724D01*
X167452660Y-118865657D01*
X167462948Y-118972648D01*
X167473566Y-119067072D01*
X167484158Y-119144303D01*
X167494366Y-119199716D01*
X167503029Y-119227298D01*
X167525399Y-119248684D01*
X167571959Y-119278737D01*
X167638164Y-119315393D01*
X167719467Y-119356590D01*
X167811321Y-119400262D01*
X167909179Y-119444348D01*
X168008493Y-119486782D01*
X168104718Y-119525502D01*
X168193307Y-119558443D01*
X168269711Y-119583543D01*
X168314417Y-119595552D01*
X168359954Y-119609025D01*
X168401057Y-119629511D01*
X168445897Y-119662119D01*
X168502643Y-119711961D01*
X168507191Y-119716152D01*
X168636471Y-119818975D01*
X168788272Y-119911174D01*
X168955085Y-119988387D01*
X169013707Y-120010387D01*
X169141777Y-120047034D01*
X169259544Y-120060895D01*
X169373075Y-120051221D01*
X169488438Y-120017259D01*
X169611699Y-119958259D01*
X169659784Y-119930378D01*
X169755793Y-119866597D01*
X169826838Y-119804877D01*
X169877861Y-119740459D01*
X169901163Y-119698024D01*
X169943069Y-119589433D01*
X169978516Y-119456434D01*
X170006125Y-119304873D01*
X170019498Y-119196377D01*
X170026037Y-119126849D01*
X170029405Y-119070657D01*
X170029140Y-119019650D01*
X170024780Y-118965673D01*
X170015864Y-118900575D01*
X170001932Y-118816203D01*
X169996069Y-118782246D01*
X169960589Y-118601579D01*
X169922133Y-118451429D01*
X169880697Y-118331781D01*
X169842555Y-118253061D01*
X169824321Y-118222417D01*
X169806977Y-118197260D01*
X169786773Y-118175130D01*
X169759961Y-118153566D01*
X169722795Y-118130108D01*
X169671524Y-118102296D01*
X169602401Y-118067671D01*
X169511678Y-118023771D01*
X169443176Y-117990930D01*
X169359390Y-117949826D01*
X169276846Y-117907627D01*
X169203520Y-117868523D01*
X169147392Y-117836707D01*
X169133849Y-117828424D01*
X169067986Y-117791800D01*
X169004090Y-117768383D01*
X168937531Y-117758497D01*
X168863682Y-117762467D01*
X168777912Y-117780616D01*
X168675594Y-117813269D01*
X168552098Y-117860751D01*
X168527255Y-117870900D01*
X168436277Y-117906023D01*
X168357372Y-117932004D01*
X168293990Y-117948076D01*
X168249576Y-117953468D01*
X168227580Y-117947412D01*
X168226576Y-117937963D01*
X168244234Y-117921700D01*
X168280372Y-117904862D01*
X168293605Y-117900504D01*
X168346625Y-117881946D01*
X168396342Y-117860392D01*
X168401400Y-117857823D01*
X168434288Y-117843226D01*
X168488647Y-117821820D01*
X168556851Y-117796515D01*
X168629343Y-117770886D01*
X168715204Y-117742498D01*
X168781796Y-117724003D01*
X168838171Y-117713501D01*
X168893378Y-117709092D01*
X168926093Y-117708575D01*
X168982379Y-117709465D01*
X169024471Y-117714194D01*
X169062450Y-117725849D01*
X169106396Y-117747518D01*
X169165964Y-117782033D01*
X169224964Y-117815173D01*
X169303235Y-117856492D01*
X169392092Y-117901537D01*
X169482851Y-117945856D01*
X169517473Y-117962256D01*
X169627005Y-118015154D01*
X169712229Y-118060685D01*
X169777527Y-118102350D01*
X169827279Y-118143646D01*
X169865866Y-118188073D01*
X169897668Y-118239130D01*
X169919443Y-118283311D01*
X169949023Y-118351476D01*
X169973400Y-118417149D01*
X169994304Y-118486854D01*
X170013467Y-118567111D01*
X170032623Y-118664444D01*
X170053502Y-118785373D01*
X170054708Y-118792678D01*
X170069840Y-118887944D01*
X170079663Y-118961523D01*
X170084689Y-119021845D01*
X170085425Y-119077343D01*
X170082381Y-119136448D01*
X170078338Y-119183801D01*
X170056564Y-119353148D01*
X170024854Y-119505700D01*
X169984208Y-119638424D01*
X169935628Y-119748287D01*
X169880117Y-119832258D01*
X169855446Y-119858630D01*
X169786036Y-119915467D01*
X169698829Y-119973886D01*
X169604827Y-120027410D01*
X169515030Y-120069562D01*
X169468402Y-120086499D01*
X169348099Y-120112833D01*
X169227144Y-120115992D01*
X169098884Y-120095664D01*
X168991573Y-120064019D01*
X168786336Y-119978056D01*
X168599503Y-119867639D01*
X168430568Y-119732470D01*
X168430420Y-119732333D01*
X168370291Y-119683755D01*
X168312331Y-119654093D01*
X168269369Y-119641355D01*
X168208077Y-119623485D01*
X168126567Y-119594892D01*
X168032101Y-119558493D01*
X167931941Y-119517203D01*
X167833347Y-119473936D01*
X167743581Y-119431608D01*
X167729477Y-119424593D01*
X167675452Y-119397801D01*
X167632815Y-119377272D01*
X167608216Y-119366179D01*
X167604913Y-119365096D01*
X167599662Y-119378820D01*
X167592818Y-119413934D01*
X167588685Y-119441946D01*
X167568839Y-119542236D01*
X167532864Y-119664295D01*
X167480368Y-119809310D01*
X167410957Y-119978466D01*
X167410890Y-119978623D01*
X167309887Y-120215391D01*
X167221117Y-120427374D01*
X167143651Y-120617495D01*
X167076559Y-120788678D01*
X167018912Y-120943847D01*
X166969779Y-121085925D01*
X166928231Y-121217836D01*
X166893338Y-121342503D01*
X166864170Y-121462849D01*
X166839798Y-121581799D01*
X166819291Y-121702276D01*
X166801721Y-121827202D01*
X166788929Y-121934328D01*
X166774107Y-122103792D01*
X166769486Y-122263975D01*
X166732639Y-122263975D01*
X166732515Y-122137528D01*
X166739999Y-121985324D01*
X166751379Y-121882109D01*
X166766498Y-121784883D01*
X166784953Y-121678253D01*
X166805496Y-121568378D01*
X166826874Y-121461423D01*
X166847840Y-121363548D01*
X166867142Y-121280916D01*
X166883531Y-121219688D01*
X166889565Y-121200923D01*
X166920963Y-121111810D01*
X166878593Y-121032203D01*
X166827293Y-120955197D01*
X166756390Y-120874866D01*
X166674593Y-120799699D01*
X166590609Y-120738182D01*
X166556508Y-120718313D01*
X166453247Y-120672954D01*
X166336831Y-120637153D01*
X166220217Y-120614271D01*
X166129358Y-120607488D01*
X166050727Y-120613651D01*
X165954596Y-120630439D01*
X165851165Y-120655300D01*
X165750636Y-120685682D01*
X165663211Y-120719031D01*
X165639311Y-120730088D01*
X165500481Y-120814205D01*
X165383489Y-120918597D01*
X165289482Y-121040893D01*
X165219606Y-121178724D01*
X165175006Y-121329717D01*
X165156829Y-121491504D01*
X165094622Y-121491504D01*
X165106139Y-121352603D01*
X165146502Y-121193310D01*
X165211383Y-121045575D01*
X165298826Y-120912749D01*
X165406876Y-120798179D01*
X165533577Y-120705213D01*
X165584720Y-120676999D01*
X165649297Y-120650191D01*
X165735368Y-120622636D01*
X165833886Y-120596450D01*
X165935803Y-120573750D01*
X166032072Y-120556653D01*
X166113644Y-120547274D01*
X166144097Y-120546135D01*
X166295600Y-120560780D01*
X166446457Y-120602777D01*
X166590980Y-120669217D01*
X166723485Y-120757192D01*
X166838285Y-120863794D01*
X166890980Y-120928170D01*
X166929460Y-120980435D01*
X166980785Y-120836141D01*
X167000488Y-120783588D01*
X167030168Y-120708153D01*
X167067672Y-120615130D01*
X167110846Y-120509811D01*
X167157535Y-120397491D01*
X167205585Y-120283462D01*
X167208025Y-120277717D01*
X167275086Y-120119360D01*
X167330994Y-119986061D01*
X167376896Y-119874777D01*
X167413940Y-119782462D01*
X167443273Y-119706075D01*
X167466044Y-119642569D01*
X167483400Y-119588903D01*
X167496487Y-119542031D01*
X167506455Y-119498910D01*
X167511620Y-119472464D01*
X167532721Y-119357427D01*
X167480192Y-119311413D01*
X167459370Y-119292356D01*
X167444290Y-119273883D01*
X167433257Y-119250288D01*
X167424573Y-119215864D01*
X167416543Y-119164905D01*
X167407471Y-119091704D01*
X167402675Y-119050664D01*
X167388595Y-118915214D01*
X167376350Y-118769182D01*
X167366310Y-118619619D01*
X167358845Y-118473573D01*
X167354328Y-118338095D01*
X167353129Y-118220233D01*
X167354865Y-118142049D01*
X167357446Y-118089119D01*
X167361014Y-118045649D01*
X167367177Y-118006175D01*
X167377543Y-117965235D01*
X167393721Y-117917366D01*
X167417319Y-117857106D01*
X167449944Y-117778992D01*
X167488071Y-117689573D01*
X167535774Y-117578342D01*
X167588716Y-117455516D01*
X167642340Y-117331625D01*
X167692091Y-117217199D01*
X167725378Y-117141063D01*
X167793796Y-116983006D01*
X167849530Y-116849055D01*
X167893637Y-116735890D01*
X167927174Y-116640190D01*
X167951201Y-116558637D01*
X167966775Y-116487909D01*
X167974953Y-116424687D01*
X167976795Y-116365651D01*
X167976463Y-116353120D01*
X167971988Y-116296097D01*
X167960543Y-116256549D01*
X167937507Y-116221361D01*
X167924761Y-116206413D01*
X167846689Y-116100248D01*
X167777256Y-115969392D01*
X167719332Y-115819286D01*
X167717729Y-115814311D01*
X167668564Y-115660930D01*
X167675917Y-115354166D01*
X167679000Y-115253302D01*
X167683647Y-115162161D01*
X167690659Y-115076737D01*
X167700834Y-114993021D01*
X167714971Y-114907004D01*
X167733869Y-114814679D01*
X167758327Y-114712036D01*
X167789144Y-114595069D01*
X167827118Y-114459768D01*
X167873049Y-114302125D01*
X167911319Y-114173128D01*
X167944191Y-114055496D01*
X167967606Y-113955612D01*
X167980635Y-113877694D01*
X167982975Y-113847939D01*
X167983562Y-113794451D01*
X167977860Y-113759250D01*
X167961147Y-113729991D01*
X167928702Y-113694324D01*
X167921377Y-113686832D01*
X167877701Y-113632234D01*
X167828952Y-113554303D01*
X167778394Y-113459229D01*
X167729294Y-113353199D01*
X167684914Y-113242404D01*
X167680349Y-113229881D01*
X167644469Y-113105586D01*
X167622647Y-112975028D01*
X167614981Y-112845107D01*
X167621570Y-112722724D01*
X167642511Y-112614780D01*
X167670558Y-112541691D01*
X167715686Y-112476774D01*
X167779866Y-112414465D01*
X167852429Y-112364978D01*
X167858455Y-112361787D01*
X167917467Y-112338957D01*
X167999031Y-112317965D01*
X168095025Y-112300203D01*
X168197329Y-112287064D01*
X168297821Y-112279940D01*
X168340968Y-112279066D01*
X168433596Y-112281432D01*
X168525545Y-112289452D01*
X168621201Y-112304139D01*
X168724949Y-112326509D01*
X168841172Y-112357576D01*
X168974255Y-112398355D01*
X169128584Y-112449859D01*
X169226428Y-112483943D01*
X169423811Y-112553503D01*
X169525522Y-112502723D01*
X169633683Y-112451685D01*
X169738465Y-112409204D01*
X169849398Y-112371936D01*
X169976010Y-112336541D01*
X170056532Y-112316479D01*
X170213687Y-112280254D01*
X170354678Y-112252094D01*
X170484328Y-112232104D01*
X170607461Y-112220391D01*
X170728901Y-112217062D01*
X170853473Y-112222222D01*
G37*
%TO.C,U2*%
D15*
X138800000Y-89850000D02*
X166200000Y-89850000D01*
X138800000Y-117150000D02*
X138800000Y-89850000D01*
X139222000Y-93145000D02*
X162322000Y-93145000D01*
X139222000Y-109745000D02*
X139222000Y-93145000D01*
X147501000Y-90339000D02*
X147501000Y-92752000D01*
X147501000Y-90339000D02*
X157280000Y-90339000D01*
X157280000Y-90339000D02*
X157280000Y-92752000D01*
X157280000Y-92752000D02*
X147501000Y-92752000D01*
X162322000Y-93145000D02*
X165408000Y-93145000D01*
X162322000Y-109745000D02*
X139222000Y-109745000D01*
X162322000Y-109745000D02*
X165662000Y-109770000D01*
X165662000Y-93133000D02*
X165408000Y-93145000D01*
X165662000Y-109770000D02*
X165662000Y-93133000D01*
X166200000Y-89850000D02*
X166200000Y-117150000D01*
X166200000Y-117150000D02*
X138800000Y-117150000D01*
%TO.C,BT1*%
D12*
X130400000Y-106960000D02*
X137600000Y-106960000D01*
X130400000Y-117120000D02*
X130400000Y-106960000D01*
X137600000Y-106960000D02*
X138600000Y-106960000D01*
X137600000Y-117120000D02*
X130400000Y-117120000D01*
X137600000Y-117120000D02*
X137600000Y-106960000D01*
X138600000Y-106960000D02*
X138600000Y-117120000D01*
X138600000Y-117120000D02*
X137600000Y-117120000D01*
%TO.C,BZ1*%
D15*
X174100000Y-133000000D02*
G75*
G02*
X161900000Y-133000000I-6100000J0D01*
G01*
X161900000Y-133000000D02*
G75*
G02*
X174100000Y-133000000I6100000J0D01*
G01*
%TO.C,U1*%
X130700000Y-124400000D02*
X131900000Y-124400000D01*
X130700000Y-132400000D02*
X130700000Y-124400000D01*
X131900000Y-121800000D02*
X131900000Y-124400000D01*
X131900000Y-132400000D02*
X130700000Y-132400000D01*
X131900000Y-132400000D02*
X131900000Y-135000000D01*
X152900000Y-135100000D02*
X152900000Y-121700000D01*
X131900001Y-121800000D02*
G75*
G02*
X133398538Y-119595970I2274909J64720D01*
G01*
X133395320Y-137212892D02*
G75*
G02*
X131900001Y-135000468I774913J2135279D01*
G01*
X151400000Y-119600000D02*
G75*
G02*
X152900003Y-121700000I-823750J-2174110D01*
G01*
X152900000Y-135100000D02*
G75*
G02*
X151400000Y-137200000I-2323747J74105D01*
G01*
%TO.C,SW1*%
D12*
X132750000Y-140000000D02*
X144750000Y-140000000D01*
X132750000Y-142205000D02*
X132750000Y-140000000D01*
X132750000Y-144795000D02*
X132750000Y-147205000D01*
X132750000Y-149800000D02*
X132750000Y-152000000D01*
X132750000Y-152000000D02*
X144750000Y-152000000D01*
X144750000Y-140000000D02*
X144750000Y-142205000D01*
X144750000Y-144795000D02*
X144750000Y-147205000D01*
X144750000Y-152000000D02*
X144750000Y-149800000D01*
D13*
X131850000Y-141500000D02*
G75*
G02*
X131650000Y-141500000I-100000J0D01*
G01*
X131650000Y-141500000D02*
G75*
G02*
X131850000Y-141500000I100000J0D01*
G01*
%TD*%
M02*
