M48
; DRILL file KiCad 10.0.3 date 2026-06-21T01:40:04
; FORMAT={-:-/ absolute / metric / decimal}
; #@! TF.CreationDate,2026-06-21T01:40:04+05:30
; #@! TF.GenerationSoftware,Kicad,Pcbnew,10.0.3
; #@! TF.FileFunction,Plated,1,2,PTH
FMAT,2
METRIC
; #@! TA.AperFunction,Plated,PTH,ComponentDrill
T1C1.000
; #@! TA.AperFunction,Plated,PTH,ComponentDrill
T2C1.100
; #@! TA.AperFunction,Plated,PTH,ComponentDrill
T3C1.300
%
G90
G05
T1
X148.58Y-91.55
X151.12Y-91.55
X153.66Y-91.55
X156.2Y-91.55
X168.0Y-129.2
X168.0Y-136.8
T2
X134.5Y-109.5
X134.5Y-114.58
T3
X132.5Y-143.5
X132.5Y-148.5
X145.0Y-143.5
X145.0Y-148.5
X147.75Y-143.5
X147.75Y-148.5
X160.25Y-143.5
X160.25Y-148.5
X162.75Y-143.5
X162.75Y-148.5
X175.25Y-143.5
X175.25Y-148.5
M30
